OpenSim_Sub01_CSStiffKnee_LCS.mot
version=1
nRows=26
nColumns=11
inDegrees=no
endheader
time	Bot_Shank	2nd_Bot_Shank	2nd_Top_Shank	Top_Shank	Bot_Thigh	Med_Thigh	Top_Thigh	BNOx	BNOy	BNOZ
26.90000000	9336.22990268	9761.86299920	10407.69852865	10420.67447202	13250.23710177	14430.09047303	15098.51721618	187.98135219	-89.46398796	169.60631916
26.91000000	9333.05873820	9759.03353217	10406.45306334	10421.17166268	13237.02204777	14410.94105261	15080.32322112	189.39244119	-89.17160350	178.31195374
26.92000000	9330.66409540	9756.58119886	10405.37782022	10420.31499924	13221.14419361	14387.18567365	15065.64014965	190.95921814	-88.46573816	180.28119889
26.93000000	9328.91995888	9754.53290727	10404.48632749	10418.20364900	13202.65704107	14359.49661809	15054.39621023	192.67133472	-87.37377678	176.00410141
26.94000000	9327.42347252	9752.80607081	10403.75868212	10415.20120380	13181.84963048	14329.40981836	15045.90605373	194.49876266	-85.97298280	167.08562671
26.95000000	9325.76465890	9751.31528631	10403.17412114	10411.67805740	13159.01706099	14298.48342299	15039.46854820	196.41096744	-84.34190273	155.15941978
26.96000000	9323.53354060	9749.97515059	10402.71188156	10408.00460358	13134.45443179	14268.27558052	15034.38256168	198.37741454	-82.55908310	141.85912563
26.97000000	9320.32014018	9748.70026048	10402.35120040	10404.55123610	13108.45684206	14240.34443947	15029.94696220	200.36756945	-80.70307040	128.81838924
26.98000000	9315.71448022	9747.40521280	10402.07131467	10401.68834872	13081.31939097	14216.24814838	15025.46061780	202.35089766	-78.85241115	117.67085562
26.99000000	9309.35917147	9746.00828430	10401.85193550	10399.75387201	13053.36377970	14197.40500103	15020.27907001	204.29785990	-77.08133042	109.91647837
27	9301.43972463	9744.46574162	10401.67766840	10398.75059882	13025.18633837	14183.78948467	15014.34293542	206.18919155	-75.41944042	105.67503261
27.01000000	9292.46193228	9742.75626343	10401.53600634	10398.48360874	12997.54541340	14174.52431815	15007.93799358	208.01168946	-73.87003419	104.25206226
27.02000000	9282.93572660	9740.85881807	10401.41447962	10398.75542597	12971.20144525	14168.72121134	15001.35448519	209.75222882	-72.43606455	104.94258738
27.03000000	9273.37103976	9738.75237388	10401.30061852	10399.36857468	12946.91487439	14165.49187413	14994.88265096	211.39768484	-71.12048438	107.04162808
27.04000000	9264.27780391	9736.41589921	10401.18195332	10400.12557906	12925.44614127	14163.94801638	14988.81273160	212.93493270	-69.92624651	109.84420442
27.05000000	9256.16595123	9733.82836240	10401.04601432	10400.82896329	12907.55568637	14163.20134797	14983.43496781	214.35084761	-68.85630381	112.64533651
27.06000000	9249.50743304	9730.98193166	10400.88188218	10401.29575413	12893.92973089	14162.42042213	14979.01939988	215.63361285	-67.91266260	114.78779850
27.07000000	9244.38210111	9728.00504570	10400.69464320	10401.49269715	12884.48828496	14161.36062088	14975.62752655	216.78491587	-67.08755794	116.10735950
27.08000000	9240.63848948	9725.10653553	10400.49882611	10401.47486406	12878.69933532	14160.12352373	14973.19781829	217.81441087	-66.36746029	116.73062915
27.09000000	9238.12214245	9722.49627118	10400.30908169	10401.29846814	12876.02502636	14158.81518478	14971.66715542	218.73185501	-65.73876563	116.78797614
27.10000000	9236.67860431	9720.38412271	10400.14006072	10401.01972268	12875.92750248	14157.54165808	14970.97241827	219.54700548	-65.18786993	116.40976919
27.11000000	9236.15341936	9718.97996017	10400.00641397	10400.69484096	12877.86890807	14156.40899772	14971.05048717	220.26961942	-64.70116917	115.72637699
27.12000000	9236.39213192	9718.49365359	10399.92279222	10400.38003627	12881.31138752	14155.52325777	14971.83824245	220.90945400	-64.26505931	114.86816826
27.13000000	9237.24028626	9719.13507303	10399.90384626	10400.13152190	12885.71708523	14154.99049231	14973.27256446	221.47626640	-63.86593632	113.96551170
27.14000000	9238.54342671	9721.11408854	10399.96422685	10400.00551114	12890.54814559	14154.91675542	14975.29033350	221.97981377	-63.49019619	113.14877601
27.15000000	9240.14281660	9724.59656557	10400.11602268	10400.05218445	12895.28833738	14155.39025535	14977.81687308	222.42949542	-63.12529342	112.53899661
